# xmcd
#
# Track frame offsets:
#	150
#	20862
#	37794
#	51520
#	70157
#	86159
#	107843
#	123866
#	140505
#	157401
#	172540
#	186982
#
# Disc length: 2721 seconds
#
# Revision: 0
# Processed by: cddbd v1.5.2PL0 Copyright (c) Steve Scherf et al.
# Submitted via: audiograbber 1.83.01
#
DISCID=a70a9f0c
DTITLE=Helmut Frey - Farben der Liebe
DYEAR=1987
DGENRE=Schlager
TTITLE0=Doch dann kamst du
TTITLE1=Bleib bei mir
TTITLE2=So bist du
TTITLE3=Du bist zu jung
TTITLE4=Ich wein' um dich, Aline
TTITLE5=Ein Leben lang
TTITLE6=Engel lügen nicht
TTITLE7=Nachts hör' ich dich manchmal weinen
TTITLE8=Lass sie gehen
TTITLE9=Nachts kommt die Erinnerung
TTITLE10=Doch nachts gehörst du mir
TTITLE11=Nicht ein Wort davon ist wahr
EXTD=saturn.de 081228
EXTT0=
EXTT1=
EXTT2=
EXTT3=
EXTT4=
EXTT5=
EXTT6=
EXTT7=
EXTT8=
EXTT9=
EXTT10=
EXTT11=
PLAYORDER=
